<svg width="999.7" height="236.22" viewBox="0 0 999.7 236.22" xmlns="http://www.w3.org/2000/svg">
  <defs>
    <linearGradient id="b" x1="688" y1="0" x2="688" y2="236.22" gradientUnits="userSpaceOnUse">
      <stop offset=".45" stop-color="#fe0000"/>
      <stop offset=".75" stop-color="#f90000"/>
      <stop offset=".85" stop-color="#e80000"/>
      <stop offset="1" stop-color="#c30000"/>
    </linearGradient>
  </defs>
  <path d="M984.15 0c8.66 0 15.55 7.282 15.55 15.55v205.118c0 8.268-6.89 15.552-15.55 15.552H379.2V0Z" fill="url(#b)"/>
  <path d="M15.55 0C6.89 0 0 7.282 0 15.55v205.118c0 8.268 6.89 15.552 15.55 15.552H400.5V0Z" fill="#fff"/>
  <path d="M268.605 212.448c2.627 1.34 7.943 2.954 14.647 3.12 11.516.257 17.769-4.14 22.433-14.446l61.74-137.483c-2.534-1.36-8.418-2.888-12.783-2.957-7.953-.166-18.625 1.441-25.4 17.68l-19.99 47.103L270.037 61.7c-2.535-.772-8.713-1.865-13.194-1.865-13.887 0-21.601 5.07-29.644 13.777l-38.116 41.606 30.659 48.2c5.675 8.799 13.132 13.262 25.235 13.262 7.953 0 14.555-1.85 17.605-3.283l-36.933-55.557 26.182-27.743 42.947 67.314ZM187.6 160.443c0 10.14-3.987 15.981-23.804 15.981-2.625 0-4.903-.165-7.106-.514V41.485c0-10.231 3.47-20.885 23.452-20.885 2.535 0 5.045.257 7.415.772v139.09Zm-40.885-20.297c0 9.469-3.09 17.657-9.325 23.808s-15.616 10.266-28.197 11.625c-18.201 1.948-44.539-.33-57.083-1.781-.422-2.02-.75-4.556-.75-6.595 0-16.495 8.89-20.284 17.284-20.284s22.44 1.535 32.596 1.535c11.259 0 14.657-3.812 14.657-7.45 0-4.739-4.482-6.686-13.206-8.376l-23.895-4.573C58.96 124.27 48.4 110.553 48.4 96.005c0-17.671 12.545-32.458 37.193-35.158 18.623-2.039 41.305.26 53.758 1.784.422 2.112.679 4.132.679 6.318 0 16.477-8.743 20.06-17.118 20.06-6.428 0-16.438-1.197-27.862-1.197s-16.438 3.215-16.438 7.11c0 4.15 4.583 5.84 11.874 7.108l22.766 4.225c11.69 2.158 20.048 6.553 25.492 12.45 5.443 5.896 7.971 13.294 7.971 21.46Z" fill="#1c1c1c"/>
  <path d="M865.22 169.72c-1.375-9.758 1.518-14.87 7.211-14.87 5.305 0 18.16 5.825 36.226 5.825 7.093 0 26.313-.764 26.313-15.634 0-6.373-3.13-11.784-19.929-16.33l-19.735-5.377c-21.998-5.828-30.337-16.827-30.337-30.37 0-16.71 13.747-31.35 43.078-31.35 13.352 0 30.243 2.988 40.456 6.971 1.863 10.096-1.36 14.665-7.054 14.665-5.11 0-16.691-4.87-32.986-4.87-17.678 0-24.183 6.09-24.183 13.989 0 5.378 2.72 10.612 17.887 14.833l20.232 5.578c5.572 1.586 10.305 3.354 14.282 5.332 12.634 6.281 17.659 15.555 17.659 26.233 0 6.067-1.54 11.565-4.76 16.476-5.037 7.683-14.245 13.442-28.348 15.683-3.937.626-8.255.886-12.97.886-13.001.178-31.8-3.315-43.042-7.67M852.838 65.552l-29.431 102.516c-1.768 6.493-6.689 8.167-13.774 8.167-3.939 0-8.029-.723-11.119-1.574l-28.049-90.12-26.375 83.527c-2.29 6.87-7.483 8.167-13.585 8.167-3.936 0-8.011-.572-11.567-1.637L687.4 65.552c2.755-1.378 7.873-2.755 12.007-2.755 5.314 0 8.27 1.574 9.647 6.69l22.242 85.594h.197l27.582-89.53c3.15-1.77 7.354-2.754 11.685-2.754 7.285 0 11.42 1.574 13.39 8.264l25.524 83.923h.202l21.594-85.632c1.377-5.112 4.35-6.552 9.66-6.552 4.726.197 8.952 1.374 11.708 2.752M590.95 126.35h86.25c.505-4.463.725-8.654.725-11.158 0-26.98-16.987-53.567-51.293-53.567-30.364 0-55.207 24.026-55.207 57.506 0 34.858 23.327 58.269 58.225 58.269 16.168 0 31.238-4.899 41.293-9.232.986-10.24-2.563-14.693-7.886-14.693-3.052.17-5.836 1.357-8.725 2.284-6.902 2.364-14.754 4.236-23.782 4.236-22.083 0-37.036-11.982-39.6-33.645m68.375-14.825h-68.35c2.957-22.057 18.656-33.825 35.851-33.825 19.365 0 31.71 14.722 32.499 33.825m-110.615-2.604v60.289c0 4.329-2.573 7.032-10.232 7.032-3.142 0-6.872-.394-8.835-.984V111.48c0-22.234-10.8-32.829-27.294-32.829-12.763 0-26.508 8.724-32.202 19.153v71.282c0 4.329-2.553 7.157-10.21 7.157-3.142 0-6.874-.394-8.837-.984V63.73c1.767-.394 5.498-.92 8.836-.92 7.658 0 10.21 2.755 10.21 7.28v9.416c8.051-10.035 20.422-17.881 36.72-17.881 22.777 0 41.844 14.239 41.844 47.296" fill="#fff"/>
</svg>
