<?xml version="1.0" encoding="UTF-8" standalone="no"?>
<!-- Created with Inkscape (http://www.inkscape.org/) -->
<svg
   xmlns:dc="http://purl.org/dc/elements/1.1/"
   xmlns:cc="http://creativecommons.org/ns#"
   xmlns:rdf="http://www.w3.org/1999/02/22-rdf-syntax-ns#"
   xmlns:svg="http://www.w3.org/2000/svg"
   xmlns="http://www.w3.org/2000/svg"
   xmlns:sodipodi="http://sodipodi.sourceforge.net/DTD/sodipodi-0.dtd"
   xmlns:inkscape="http://www.inkscape.org/namespaces/inkscape"
   id="svg2483"
   sodipodi:version="0.32"
   inkscape:version="0.46"
   width="85.980003"
   height="12.7"
   xml:space="preserve"
   sodipodi:docname="Sky Sports.svg"
   version="1.0"
   inkscape:output_extension="org.inkscape.output.svg.inkscape"><metadata
     id="metadata2488"><rdf:RDF><cc:Work
         rdf:about=""><dc:format>image/svg+xml</dc:format><dc:type
           rdf:resource="http://purl.org/dc/dcmitype/StillImage" /></cc:Work></rdf:RDF></metadata><defs
     id="defs2486"><inkscape:perspective
       sodipodi:type="inkscape:persp3d"
       inkscape:vp_x="0 : 526.18109 : 1"
       inkscape:vp_y="0 : 1000 : 0"
       inkscape:vp_z="744.09448 : 526.18109 : 1"
       inkscape:persp3d-origin="372.04724 : 350.78739 : 1"
       id="perspective2490" /><clipPath
       clipPathUnits="userSpaceOnUse"
       id="clipPath2504"><path
         d="M 0,841.89 L 595.275,841.89 L 595.275,0 L 0,0 L 0,841.89 z"
         id="path2506" /></clipPath><clipPath
       clipPathUnits="userSpaceOnUse"
       id="clipPath2574"><path
         d="M 473,796.387 L 525.127,796.387 L 525.127,829.556 L 473,829.556 L 473,796.387 z"
         id="path2576" /></clipPath><clipPath
       clipPathUnits="userSpaceOnUse"
       id="clipPath2598"><path
         d="M 0,841.89 L 595.275,841.89 L 595.275,0 L 0,0 L 0,841.89 z"
         id="path2600" /></clipPath><clipPath
       clipPathUnits="userSpaceOnUse"
       id="clipPath2910"><path
         d="M 0,841.89 L 595.275,841.89 L 595.275,0 L 0,0 L 0,841.89 z"
         id="path2912" /></clipPath><clipPath
       clipPathUnits="userSpaceOnUse"
       id="clipPath2966"><path
         d="M 0,841.89 L 595.275,841.89 L 595.275,0 L 0,0 L 0,841.89 z"
         id="path2968" /></clipPath><clipPath
       clipPathUnits="userSpaceOnUse"
       id="clipPath2992"><path
         d="M 0,841.89 L 595.275,841.89 L 595.275,0 L 0,0 L 0,841.89 z"
         id="path2994" /></clipPath><clipPath
       clipPathUnits="userSpaceOnUse"
       id="clipPath3022"><path
         d="M 0,841.89 L 595.275,841.89 L 595.275,0 L 0,0 L 0,841.89 z"
         id="path3024" /></clipPath><clipPath
       clipPathUnits="userSpaceOnUse"
       id="clipPath3040"><path
         d="M 0,841.89 L 595.275,841.89 L 595.275,0 L 0,0 L 0,841.89 z"
         id="path3042" /></clipPath><clipPath
       clipPathUnits="userSpaceOnUse"
       id="clipPath3054"><path
         d="M 0,841.89 L 595.275,841.89 L 595.275,0 L 0,0 L 0,841.89 z"
         id="path3056" /></clipPath><clipPath
       clipPathUnits="userSpaceOnUse"
       id="clipPath3068"><path
         d="M 0,841.89 L 595.275,841.89 L 595.275,0 L 0,0 L 0,841.89 z"
         id="path3070" /></clipPath><clipPath
       clipPathUnits="userSpaceOnUse"
       id="clipPath3082"><path
         d="M 0,841.89 L 595.275,841.89 L 595.275,0 L 0,0 L 0,841.89 z"
         id="path3084" /></clipPath><clipPath
       clipPathUnits="userSpaceOnUse"
       id="clipPath3096"><path
         d="M 0,841.89 L 595.275,841.89 L 595.275,0 L 0,0 L 0,841.89 z"
         id="path3098" /></clipPath><clipPath
       clipPathUnits="userSpaceOnUse"
       id="clipPath3110"><path
         d="M 0,841.89 L 595.275,841.89 L 595.275,0 L 0,0 L 0,841.89 z"
         id="path3112" /></clipPath><clipPath
       clipPathUnits="userSpaceOnUse"
       id="clipPath3124"><path
         d="M 0,841.89 L 595.275,841.89 L 595.275,0 L 0,0 L 0,841.89 z"
         id="path3126" /></clipPath><clipPath
       clipPathUnits="userSpaceOnUse"
       id="clipPath3138"><path
         d="M 0,841.89 L 595.275,841.89 L 595.275,0 L 0,0 L 0,841.89 z"
         id="path3140" /></clipPath><clipPath
       clipPathUnits="userSpaceOnUse"
       id="clipPath3164"><path
         d="M 0,841.89 L 595.275,841.89 L 595.275,0 L 0,0 L 0,841.89 z"
         id="path3166" /></clipPath><clipPath
       clipPathUnits="userSpaceOnUse"
       id="clipPath3308"><path
         d="M 0,841.89 L 595.275,841.89 L 595.275,0 L 0,0 L 0,841.89 z"
         id="path3310" /></clipPath><clipPath
       clipPathUnits="userSpaceOnUse"
       id="clipPath3380"><path
         d="M 0,841.89 L 595.275,841.89 L 595.275,0 L 0,0 L 0,841.89 z"
         id="path3382" /></clipPath><clipPath
       clipPathUnits="userSpaceOnUse"
       id="clipPath3444"><path
         d="M 0,841.89 L 595.275,841.89 L 595.275,0 L 0,0 L 0,841.89 z"
         id="path3446" /></clipPath><clipPath
       clipPathUnits="userSpaceOnUse"
       id="clipPath3462"><path
         d="M 0,841.89 L 595.275,841.89 L 595.275,0 L 0,0 L 0,841.89 z"
         id="path3464" /></clipPath><clipPath
       clipPathUnits="userSpaceOnUse"
       id="clipPath3520"><path
         d="M 0,841.89 L 595.275,841.89 L 595.275,0 L 0,0 L 0,841.89 z"
         id="path3522" /></clipPath></defs><sodipodi:namedview
     inkscape:window-height="944"
     inkscape:window-width="1280"
     inkscape:pageshadow="2"
     inkscape:pageopacity="0.0"
     guidetolerance="10.0"
     gridtolerance="10.0"
     objecttolerance="10.0"
     borderopacity="1.0"
     bordercolor="#666666"
     pagecolor="#ffffff"
     id="base"
     showgrid="false"
     inkscape:zoom="8"
     inkscape:cx="47.687599"
     inkscape:cy="-3.0151683"
     inkscape:window-x="-8"
     inkscape:window-y="-8"
     inkscape:current-layer="g2596" /><g
     id="g2492"
     inkscape:groupmode="layer"
     inkscape:label="aworldofsport"
     transform="matrix(1.25,0,0,-1.25,-98.715,816.20875)"><g
       id="g2594"
       transform="translate(0,-80.180004)"><g
         id="g2596"
         clip-path="url(#clipPath2598)"><g
           id="g3526"
           transform="translate(1.0297049e-2,-8.884795e-3)"><path
             id="path2694"
             style="fill:#0e2d6d;fill-opacity:1;fill-rule:nonzero;stroke:none"
             d="M 78.972,733.147 L 103.16595,733.147 L 103.16595,723.016 L 78.972,723.016 L 78.972,733.147 z" /><path
             id="path2662"
             style="fill:#d82232;fill-opacity:1;fill-rule:nonzero;stroke:none"
             d="M 103.106,733.147 L 147.732,733.147 L 147.732,723.016 L 103.106,723.016 L 103.106,733.147 z" /><g
             transform="translate(107.3135,731.5068)"
             id="g2664"><path
               id="path2666"
               style="fill:#ffffff;fill-opacity:1;fill-rule:nonzero;stroke:none"
               d="M 0,0 L 3.731,0 C 3.792,0 3.824,-0.031 3.824,-0.092 L 3.824,-0.852 C 3.824,-1.187 3.654,-1.355 3.31,-1.355 L 0.104,-1.355 C -0.361,-1.355 -0.595,-1.529 -0.595,-1.878 C -0.595,-2.049 -0.536,-2.181 -0.416,-2.269 C -0.294,-2.359 -0.123,-2.431 0.104,-2.485 L 2.22,-2.958 C 2.865,-3.102 3.341,-3.334 3.65,-3.657 C 3.957,-3.978 4.113,-4.407 4.113,-4.941 C 4.113,-5.53 3.88,-5.996 3.413,-6.338 C 2.948,-6.682 2.317,-6.852 1.521,-6.852 L -2.117,-6.852 C -2.178,-6.852 -2.209,-6.818 -2.209,-6.75 L -2.209,-6 C -2.209,-5.664 -2.038,-5.497 -1.695,-5.497 L 1.653,-5.497 C 1.915,-5.497 2.098,-5.443 2.204,-5.332 C 2.31,-5.223 2.362,-5.107 2.362,-4.984 C 2.362,-4.681 2.124,-4.476 1.645,-4.366 L -0.472,-3.894 C -1.096,-3.75 -1.564,-3.52 -1.881,-3.206 C -2.195,-2.891 -2.354,-2.493 -2.354,-2.013 C -2.354,-1.411 -2.139,-0.925 -1.71,-0.554 C -1.281,-0.185 -0.712,0 0,0" /></g><g
             transform="translate(115.3862,728.2715)"
             id="g2668"><path
               id="path2670"
               style="fill:#ffffff;fill-opacity:1;fill-rule:nonzero;stroke:none"
               d="M 0,0 C 0.826,0 1.241,0.322 1.241,0.966 C 1.241,1.576 0.826,1.88 0,1.88 L -1.672,1.88 L -1.672,0 L 0,0 z M 0.185,3.235 C 1.019,3.235 1.681,3.058 2.175,2.701 C 2.667,2.345 2.913,1.787 2.913,1.025 C 2.913,-0.576 1.966,-1.379 0.072,-1.379 L -1.672,-1.379 L -1.672,-3.113 C -1.672,-3.448 -1.843,-3.617 -2.186,-3.617 L -3.244,-3.617 C -3.306,-3.617 -3.335,-3.586 -3.335,-3.524 L -3.335,2.722 C -3.335,3.065 -3.165,3.235 -2.822,3.235 L 0.185,3.235 z" /></g><g
             transform="translate(123.835,728.1768)"
             id="g2672"><path
               id="path2674"
               style="fill:#ffffff;fill-opacity:1;fill-rule:nonzero;stroke:none"
               d="M 0,0 C 0.007,0.787 -0.123,1.341 -0.392,1.663 C -0.659,1.985 -1.077,2.145 -1.646,2.145 C -2.221,2.145 -2.642,1.985 -2.909,1.663 C -3.176,1.341 -3.313,0.787 -3.32,0 C -3.32,-0.794 -3.186,-1.351 -2.919,-1.668 C -2.652,-1.987 -2.227,-2.152 -1.646,-2.167 C -1.069,-2.167 -0.652,-2.001 -0.392,-1.674 C -0.13,-1.346 0,-0.787 0,0 M 1.706,-0.001 C 1.706,-0.898 1.563,-1.606 1.278,-2.126 C 0.995,-2.647 0.604,-3.009 0.107,-3.213 C -0.39,-3.42 -0.973,-3.522 -1.646,-3.522 C -2.721,-3.522 -3.551,-3.263 -4.138,-2.747 C -4.723,-2.229 -5.017,-1.315 -5.017,-0.001 C -5.01,1.285 -4.704,2.191 -4.102,2.719 C -3.499,3.245 -2.678,3.508 -1.646,3.508 C -0.973,3.508 -0.392,3.4 0.102,3.185 C 0.596,2.969 0.985,2.603 1.273,2.088 C 1.561,1.57 1.706,0.874 1.706,-0.001" /></g><g
             transform="translate(128.043,728.4326)"
             id="g2676"><path
               id="path2678"
               style="fill:#ffffff;fill-opacity:1;fill-rule:nonzero;stroke:none"
               d="M 0,0 L 1.61,0 C 2.431,0 2.843,0.299 2.843,0.896 C 2.843,1.197 2.743,1.411 2.549,1.533 C 2.354,1.658 2.041,1.719 1.61,1.719 L 0,1.719 L 0,0 z M -0.009,-1.347 L 0,-3.274 C 0,-3.609 -0.171,-3.778 -0.514,-3.778 L -1.572,-3.778 C -1.633,-3.778 -1.665,-3.747 -1.665,-3.685 L -1.665,2.571 C -1.665,2.906 -1.492,3.074 -1.151,3.074 L 1.899,3.074 C 3.636,3.074 4.506,2.369 4.506,0.957 C 4.506,0.333 4.321,-0.16 3.953,-0.523 C 3.582,-0.887 3.174,-1.092 2.728,-1.141 L 4.762,-3.644 C 4.797,-3.672 4.808,-3.701 4.793,-3.732 C 4.779,-3.763 4.747,-3.778 4.692,-3.778 L 2.944,-3.778 C 2.871,-3.778 2.792,-3.736 2.709,-3.655 L 0.861,-1.347 L 0,-1.347 L -0.009,-1.347 z" /></g><g
             transform="translate(139.085,731.5068)"
             id="g2680"><path
               id="path2682"
               style="fill:#ffffff;fill-opacity:1;fill-rule:nonzero;stroke:none"
               d="M 0,0 C 0.063,0 0.092,-0.031 0.092,-0.092 L 0.092,-0.852 C 0.092,-1.187 -0.078,-1.355 -0.42,-1.355 L -2.136,-1.355 L -2.136,-6.358 C -2.136,-6.688 -2.307,-6.852 -2.649,-6.852 L -3.708,-6.852 C -3.77,-6.852 -3.8,-6.821 -3.8,-6.759 L -3.8,-1.355 L -5.946,-1.355 C -6.009,-1.355 -6.039,-1.324 -6.039,-1.262 L -6.039,-0.502 C -6.039,-0.168 -5.869,0 -5.525,0 L 0,0 z" /></g><g
             transform="translate(141.8999,731.5068)"
             id="g2684"><path
               id="path2686"
               style="fill:#ffffff;fill-opacity:1;fill-rule:nonzero;stroke:none"
               d="M 0,0 L 3.729,0 C 3.792,0 3.823,-0.031 3.823,-0.092 L 3.823,-0.852 C 3.823,-1.187 3.652,-1.355 3.309,-1.355 L 0.102,-1.355 C -0.364,-1.355 -0.597,-1.529 -0.597,-1.878 C -0.597,-2.049 -0.538,-2.181 -0.416,-2.269 C -0.297,-2.359 -0.125,-2.431 0.102,-2.485 L 2.221,-2.958 C 2.863,-3.102 3.34,-3.334 3.648,-3.657 C 3.957,-3.978 4.11,-4.407 4.11,-4.941 C 4.11,-5.53 3.877,-5.996 3.413,-6.338 C 2.946,-6.682 2.315,-6.852 1.521,-6.852 L -2.118,-6.852 C -2.179,-6.852 -2.211,-6.818 -2.211,-6.75 L -2.211,-6 C -2.211,-5.664 -2.039,-5.497 -1.696,-5.497 L 1.653,-5.497 C 1.914,-5.497 2.096,-5.443 2.201,-5.332 C 2.309,-5.223 2.361,-5.107 2.361,-4.984 C 2.361,-4.681 2.12,-4.476 1.643,-4.366 L -0.474,-3.894 C -1.097,-3.75 -1.567,-3.52 -1.881,-3.206 C -2.198,-2.891 -2.354,-2.493 -2.354,-2.013 C -2.354,-1.411 -2.139,-0.925 -1.712,-0.554 C -1.284,-0.185 -0.713,0 0,0" /></g><g
             transform="translate(88.4375,731.5068)"
             id="g2696"><path
               id="path2698"
               style="fill:#ffffff;fill-opacity:1;fill-rule:nonzero;stroke:none"
               d="M 0,0 L 1.057,0 C 1.118,0 1.15,-0.031 1.15,-0.092 L 1.15,-6.348 C 1.15,-6.684 0.978,-6.852 0.635,-6.852 L -0.422,-6.852 C -0.484,-6.852 -0.516,-6.821 -0.516,-6.759 L -0.516,-0.503 C -0.516,-0.168 -0.343,0 0,0" /></g><g
             transform="translate(83.1851,731.5068)"
             id="g2700"><path
               id="path2702"
               style="fill:#ffffff;fill-opacity:1;fill-rule:nonzero;stroke:none"
               d="M 0,0 L 3.733,0 C 3.792,0 3.824,-0.031 3.824,-0.092 L 3.824,-0.852 C 3.824,-1.187 3.654,-1.355 3.311,-1.355 L 0.104,-1.355 C -0.362,-1.355 -0.595,-1.529 -0.595,-1.878 C -0.595,-2.049 -0.536,-2.181 -0.416,-2.269 C -0.294,-2.359 -0.123,-2.431 0.104,-2.485 L 2.221,-2.958 C 2.865,-3.102 3.341,-3.334 3.65,-3.657 C 3.957,-3.978 4.112,-4.407 4.112,-4.941 C 4.112,-5.53 3.88,-5.996 3.413,-6.338 C 2.947,-6.682 2.318,-6.852 1.521,-6.852 L -2.116,-6.852 C -2.178,-6.852 -2.208,-6.818 -2.208,-6.75 L -2.208,-6 C -2.208,-5.664 -2.037,-5.497 -1.695,-5.497 L 1.653,-5.497 C 1.913,-5.497 2.097,-5.443 2.203,-5.332 C 2.31,-5.223 2.362,-5.107 2.362,-4.984 C 2.362,-4.681 2.124,-4.476 1.644,-4.366 L -0.472,-3.894 C -1.094,-3.75 -1.564,-3.52 -1.878,-3.206 C -2.194,-2.891 -2.353,-2.493 -2.353,-2.013 C -2.353,-1.411 -2.138,-0.925 -1.711,-0.554 C -1.282,-0.185 -0.71,0 0,0" /></g><g
             transform="translate(101.186,731.4658)"
             id="g2704"><path
               id="path2706"
               style="fill:#ffffff;fill-opacity:1;fill-rule:nonzero;stroke:none"
               d="M 0,0 C -0.009,0.028 -0.043,0.041 -0.097,0.041 L -1.279,0.041 C -1.457,0.041 -1.586,0.022 -1.669,-0.015 C -1.752,-0.053 -1.829,-0.127 -1.905,-0.236 L -3.816,-3.055 L -5.85,-0.061 C -5.89,0.007 -5.96,0.041 -6.055,0.041 L -8.359,0.041 C -8.64,0.041 -8.848,-0.038 -8.984,-0.195 L -11.675,-3.061 L -8.708,-6.728 C -8.66,-6.783 -8.599,-6.811 -8.523,-6.811 L -6.766,-6.811 C -6.712,-6.811 -6.679,-6.796 -6.665,-6.764 C -6.651,-6.734 -6.662,-6.704 -6.696,-6.677 L -9.641,-3.03 C -9.444,-2.818 -9.174,-2.53 -8.833,-2.167 C -8.489,-1.805 -8.119,-1.412 -7.722,-0.992 C -7.564,-0.824 -7.425,-0.675 -7.302,-0.545 C -7.301,-0.548 -7.301,-0.552 -7.299,-0.555 L -4.648,-4.438 L -4.648,-6.718 C -4.648,-6.78 -4.614,-6.811 -4.544,-6.811 L -3.498,-6.811 C -3.313,-6.811 -3.18,-6.772 -3.101,-6.693 C -3.024,-6.614 -2.983,-6.482 -2.983,-6.297 L -2.983,-4.438 L -0.027,-0.104 C 0.001,-0.061 0.01,-0.026 0,0" /></g></g></g></g></g></svg>