<?xml version="1.0" encoding="UTF-8" standalone="no"?>
<svg
   xmlns:dc="http://purl.org/dc/elements/1.1/"
   xmlns:cc="http://creativecommons.org/ns#"
   xmlns:rdf="http://www.w3.org/1999/02/22-rdf-syntax-ns#"
   xmlns:svg="http://www.w3.org/2000/svg"
   xmlns="http://www.w3.org/2000/svg"
   xmlns:xlink="http://www.w3.org/1999/xlink"
   xmlns:sodipodi="http://sodipodi.sourceforge.net/DTD/sodipodi-0.dtd"
   xmlns:inkscape="http://www.inkscape.org/namespaces/inkscape"
   width="100"
   height="32"
   viewBox="0 0 100 32"
   version="1.1"
   id="svg32"
   sodipodi:docname="TNT_Sports_logo (1).svg"
   inkscape:version="1.0.2-2 (e86c870879, 2021-01-15)">
  <metadata
     id="metadata36">
    <rdf:RDF>
      <cc:Work
         rdf:about="">
        <dc:format>image/svg+xml</dc:format>
        <dc:type
           rdf:resource="http://purl.org/dc/dcmitype/StillImage" />
        <dc:title>TNT Sports logo</dc:title>
        <dc:date>27 abril 2021</dc:date>
        <cc:license
           rdf:resource="http://scripts.sil.org/OFL" />
      </cc:Work>
      <cc:License
         rdf:about="http://scripts.sil.org/OFL">
        <cc:permits
           rdf:resource="http://scripts.sil.org/pub/OFL/Reproduction" />
        <cc:permits
           rdf:resource="http://scripts.sil.org/pub/OFL/Distribution" />
        <cc:permits
           rdf:resource="http://scripts.sil.org/pub/OFL/Embedding" />
        <cc:permits
           rdf:resource="http://scripts.sil.org/pub/OFL/DerivativeWorks" />
        <cc:requires
           rdf:resource="http://scripts.sil.org/pub/OFL/Notice" />
        <cc:requires
           rdf:resource="http://scripts.sil.org/pub/OFL/Attribution" />
        <cc:requires
           rdf:resource="http://scripts.sil.org/pub/OFL/ShareAlike" />
        <cc:requires
           rdf:resource="http://scripts.sil.org/pub/OFL/DerivativeRenaming" />
        <cc:requires
           rdf:resource="http://scripts.sil.org/pub/OFL/BundlingWhenSelling" />
      </cc:License>
    </rdf:RDF>
  </metadata>
  <sodipodi:namedview
     pagecolor="#ffffff"
     bordercolor="#666666"
     borderopacity="1"
     objecttolerance="10"
     gridtolerance="10"
     guidetolerance="10"
     inkscape:pageopacity="0"
     inkscape:pageshadow="2"
     inkscape:window-width="1366"
     inkscape:window-height="745"
     id="namedview34"
     showgrid="false"
     inkscape:showpageshadow="false"
     inkscape:zoom="2.634715"
     inkscape:cx="174.87257"
     inkscape:cy="2.3634262"
     inkscape:window-x="-8"
     inkscape:window-y="-8"
     inkscape:window-maximized="1"
     inkscape:current-layer="svg32" />
  <!-- Generator: Sketch 52.1 (67048) - http://www.bohemiancoding.com/sketch -->
  <title
     id="title2">TNT Sports logo</title>
  <desc
     id="desc4">Created with Sketch.</desc>
  <defs
     id="defs20">
    <linearGradient
       x1="0.70724779"
       y1="1.6680954"
       x2="-0.01917311"
       y2="-1.8895462"
       id="linearGradient-1">
      <stop
         stop-color="#00C46F"
         offset="0%"
         id="stop6" />
      <stop
         stop-color="#00D077"
         offset="27.98%"
         id="stop8" />
      <stop
         stop-color="#00EF8C"
         offset="78.25%"
         id="stop10" />
      <stop
         stop-color="#00FF97"
         offset="100%"
         id="stop12" />
    </linearGradient>
    <linearGradient
       x1="0.64512581"
       y1="0.849738"
       x2="-0.0013850671"
       y2="-2.2350669"
       id="linearGradient-2">
      <stop
         stop-color="#00C46F"
         offset="0%"
         id="stop15" />
      <stop
         stop-color="#00FF97"
         offset="100%"
         id="stop17" />
    </linearGradient>
    <linearGradient
       inkscape:collect="always"
       xlink:href="#linear-gradient"
       id="linearGradient853"
       gradientUnits="userSpaceOnUse"
       x1="166.98578"
       y1="344.3208"
       x2="299.82211"
       y2="613.80157"
       gradientTransform="scale(2.0738343,0.4821986)" />
    <linearGradient
       id="linear-gradient"
       x1="-0.228"
       y1="-1"
       x2="0.958"
       y2="1.406"
       gradientUnits="objectBoundingBox">
      <stop
         offset="0"
         stop-color="#5600cd"
         id="stop2" />
      <stop
         offset="0.008"
         stop-color="#5400ca"
         id="stop4" />
      <stop
         offset="0.134"
         stop-color="#3a03a8"
         id="stop6-0" />
      <stop
         offset="0.268"
         stop-color="#25058b"
         id="stop8-4" />
      <stop
         offset="0.411"
         stop-color="#140775"
         id="stop10-9" />
      <stop
         offset="0.567"
         stop-color="#090866"
         id="stop12-8" />
      <stop
         offset="0.747"
         stop-color="#02095c"
         id="stop14" />
      <stop
         offset="1"
         stop-color="#000a5a"
         id="stop16" />
    </linearGradient>
    <linearGradient
       id="linear-gradient-4"
       x1="218.13338"
       y1="215.6102"
       x2="384.133"
       y2="431.38467"
       xlink:href="#linear-gradient"
       gradientTransform="scale(1.6602941,0.60230293)"
       gradientUnits="userSpaceOnUse" />
    <linearGradient
       inkscape:collect="always"
       xlink:href="#linear-gradient-5"
       id="linearGradient855"
       gradientUnits="userSpaceOnUse"
       y1="241.98167"
       x2="293.06659"
       y2="241.98167"
       gradientTransform="scale(1.2568986,0.7956091)"
       x1="203.02194" />
    <linearGradient
       id="linear-gradient-5"
       y1="0.5"
       x2="1"
       y2="0.5"
       gradientUnits="objectBoundingBox">
      <stop
         offset="0.005"
         stop-color="#ff0085"
         id="stop22" />
      <stop
         offset="1"
         stop-color="#cc1f47"
         id="stop24" />
    </linearGradient>
    <linearGradient
       inkscape:collect="always"
       xlink:href="#linear-gradient-5"
       id="linearGradient857"
       gradientUnits="userSpaceOnUse"
       y1="326.83255"
       x2="276.69861"
       y2="326.83255"
       gradientTransform="scale(1.3397032,0.746434)"
       x1="188.58655" />
    <linearGradient
       id="linearGradient354"
       y1="0.5"
       x2="1"
       y2="0.5"
       gradientUnits="objectBoundingBox">
      <stop
         offset="0.005"
         stop-color="#ff0085"
         id="stop350" />
      <stop
         offset="1"
         stop-color="#cc1f47"
         id="stop352" />
    </linearGradient>
  </defs>
  <g
     id="g159"
     transform="matrix(0.19627004,0,0,0.19627004,29.091401,8.1779651)">
    <g
       id="Grupo_8"
       data-name="Grupo 8"
       transform="matrix(1.3556751,0,0,1.3556751,44.699079,-37.681596)">
      <g
         id="Grupo_7"
         data-name="Grupo 7">
        <g
           id="Grupo_5"
           data-name="Grupo 5"
           transform="translate(0,59.108)">
          <path
             id="Trazado_1"
             data-name="Trazado 1"
             d="m 619.305,242.164 -3.287,-0.987 c -2.235,-0.723 -5.719,-1.84 -5.719,-4.733 0,-2.761 3.156,-3.573 5.522,-3.573 h 7.059 l 6,-11.152 h -90.802 a 7.254,7.254 0 0 0 -7.254,7.254 v 10.307 c -3.291,-11.59 -14.778,-19.241 -27.077,-19.241 -10.784,0 -20.937,5.885 -25.5,15.148 -1.287,-9.345 -8.354,-13.468 -18.177,-13.468 h -6.01 -35.773 c -9.908,0 -17.059,6.462 -17.059,16.5 0,9.579 5.315,11.679 13.384,13.976 2.756,0.787 7.809,2.034 7.809,5.643 0,3.477 -3.215,4.986 -6.234,4.986 -4.4,0 -8.2,-2.3 -11.417,-5.118 l -5.51,10.368 a 30.526,30.526 0 0 0 17.387,5.642 c 4.986,0 10.169,-1.378 14.04,-4.658 3.937,-3.346 5.118,-8.4 5.118,-13.32 0,-8 -5.315,-11.481 -12.2,-13.515 l -3.281,-0.984 c -2.23,-0.722 -5.708,-1.838 -5.708,-4.725 0,-2.755 3.15,-4.192 5.512,-4.192 h 19.791 v 40.05 h 13.168 v -16.8 h 7.458 c 7.2,0 12.423,-2.062 15.317,-6.546 1.315,14.824 12.614,25.021 27.886,25.021 13.569,0 24,-8.052 27.077,-20.246 v 18.566 h 13.168 v -19.475 h 0.135 l 14.6,19.483 h 14.224 l -15.923,-20.759 c 7.188,-1.276 11.086,-7.323 11.086,-14.31 a 19.019,19.019 0 0 0 -0.511,-4.434 h 8.843 v 39.5 h 13.168 v -39.5 h 8.015 a 18.472,18.472 0 0 0 -0.738,5.283 c 0,9.6 5.325,11.7 13.411,14 2.761,0.788 7.823,2.038 7.823,5.653 0,3.485 -3.222,5 -6.245,5 -4.405,0 -8.218,-2.3 -11.439,-5.128 l -5.523,10.387 a 30.586,30.586 0 0 0 17.422,5.654 c 5,0 10.19,-1.381 14.068,-4.668 3.944,-3.353 5.128,-8.414 5.128,-13.345 -0.005,-8.022 -5.33,-11.508 -12.232,-13.544 z m -164,2.8 h -2.217 v -12.63 h 2.212 c 5.106,0 9.472,0.066 9.472,6.45 0.004,6.18 -4.698,6.18 -9.472,6.18 z m 48.443,16.325 c -7.861,0 -14.311,-6.382 -14.311,-15.117 0,-6.987 6.45,-13.369 14.311,-13.369 7.861,0 14.311,6.382 14.311,13.369 -0.002,8.736 -6.452,15.118 -14.313,15.118 z m 41.522,-16.863 h -1.277 V 231.8 h 1.277 c 4.3,0 9.136,0.807 9.136,6.315 0,5.508 -4.838,6.311 -9.137,6.311 z"
             transform="translate(-399.264,-220.039)"
             inkscape:connector-curvature="0"
             style="fill:url(#linearGradient853)" />
          <g
             id="Grupo_4"
             data-name="Grupo 4"
             transform="translate(232.948,46.135)" />
        </g>
        <g
           id="Grupo_6"
           data-name="Grupo 6">
          <path
             id="Trazado_4"
             data-name="Trazado 4"
             d="m 478.419,158.637 v 25.229 h -0.474 l -13.811,-21.5 c -1.68,-2.776 -3.361,-3.726 -6.721,-3.726 h -58.149 v 9.914 h 15.937 v 40.3 h 13.82 v -40.3 H 444.5 v 40.3 h 13.2 v -30.043 h 0.282 l 17.578,26.315 c 1.754,2.776 3.361,3.726 6.722,3.726 h 9.067 v -40.3 h 15.537 v 40.3 h 13.584 v -40.3 h 12.063 l 5.158,-9.914 z"
             transform="translate(-399.264,-158.637)"
             inkscape:connector-curvature="0"
             style="fill:url(#linear-gradient-4)" />
        </g>
      </g>
    </g>
    <g
       id="Grupo_9"
       data-name="Grupo 9"
       transform="matrix(1.3556751,0,0,1.3556751,-146.63548,-40.204507)"
       inkscape:export-filename="G:\Users\suitedoalex\sites\tnt-sports-logo-3.png"
       inkscape:export-xdpi="419.9231"
       inkscape:export-ydpi="419.9231">
      <path
         id="Trazado_5"
         data-name="Trazado 5"
         d="m 304.455,201.635 18.854,26.708 v -29.394 h 45.046 a 59.023,59.023 0 0 0 -113.177,0 h 44.094 a 6.346,6.346 0 0 1 5.183,2.686 z"
         transform="translate(-252.745,-156.704)"
         inkscape:connector-curvature="0"
         style="fill:url(#linearGradient855)" />
      <path
         id="Trazado_6"
         data-name="Trazado 6"
         d="m 334.091,211.074 v 40.353 h -6.272 a 6.642,6.642 0 0 1 -5.428,-2.814 l -26.5,-37.539 h -42.854 a 59.022,59.022 0 1 0 117.27,0 z"
         transform="translate(-252.65,-158.736)"
         inkscape:connector-curvature="0"
         style="fill:url(#linearGradient857)" />
    </g>
  </g>
</svg>
